# xmcd CD database file
#
# Track frame offsets:
#	150
#	16416
#	34212
#	49575
#	65226
#	80749
#	98159
#	115851
#	135418
#	151233
#	168018
#
# Disc length: 2448 seconds
#
# Revision: 4
# Processed by: cddbd v1.5.1PL2 Copyright (c) Steve Scherf et al.
# Submitted via: CDex 1.51
#
DISCID=87098e0b
DTITLE=MORGAN - CRAIG - Every friday afternoon
DYEAR=2005
DGENRE=Country
TTITLE0=Craig Morgan - Cowboy And Clown
TTITLE1=Craig Morgan - I Got You
TTITLE2=Craig Morgan - That's What I Love About Sunday
TTITLE3=Craig Morgan - God Family And Country
TTITLE4=Craig Morgan - Always Be Mine
TTITLE5=Craig Morgan - If You Like That
TTITLE6=Craig Morgan - Every Friday Afternoon
TTITLE7=Craig Morgan - In The Dream
TTITLE8=Craig Morgan - That's When I'll Believe You're Gone
TTITLE9=Craig Morgan - Rain For The Roses
TTITLE10=Craig Morgan - Lotta Man (In That Little Boy)
EXTD=YEAR: 2005
EXTT0=
EXTT1=
EXTT2=
EXTT3=
EXTT4=
EXTT5=
EXTT6=
EXTT7=
EXTT8=
EXTT9=
EXTT10=
PLAYORDER=
